<svg width="28" height="26" viewBox="0 0 28 26" fill="none" xmlns="http://www.w3.org/2000/svg">
<path d="M11.6485 0.333334C10.5851 0.333334 9.59264 0.903615 9.05731 1.82162L7.59247 4.33333H5.00002C2.61069 4.33333 0.666687 6.27733 0.666687 8.66667V21.3333C0.666687 23.7227 2.61069 25.6667 5.00002 25.6667H23C25.3894 25.6667 27.3334 23.7227 27.3334 21.3333V8.66667C27.3334 6.27733 25.3894 4.33333 23 4.33333H20.4076L18.9427 1.82162C18.4074 0.903615 17.4149 0.333334 16.3516 0.333334H11.6485ZM14 8.33333C17.308 8.33333 20 11.0247 20 14.3333C20 17.642 17.308 20.3333 14 20.3333C10.692 20.3333 8.00002 17.642 8.00002 14.3333C8.00002 11.0247 10.692 8.33333 14 8.33333ZM14 10.3333C12.9392 10.3333 11.9217 10.7548 11.1716 11.5049C10.4214 12.2551 10 13.2725 10 14.3333C10 15.3942 10.4214 16.4116 11.1716 17.1618C11.9217 17.9119 12.9392 18.3333 14 18.3333C15.0609 18.3333 16.0783 17.9119 16.8284 17.1618C17.5786 16.4116 18 15.3942 18 14.3333C18 13.2725 17.5786 12.2551 16.8284 11.5049C16.0783 10.7548 15.0609 10.3333 14 10.3333Z" fill="#114737"/>
</svg>
