<svg width="159" height="29" viewBox="0 0 159 29" fill="none" xmlns="http://www.w3.org/2000/svg">
<path d="M125.833 1.00041H29.8564C21.9291 1.00041 18 -0.499543 14 6.00035C12.0869 9.10895 13 13.0002 13 15.5002C13.1533 17.6765 13.5 21.5002 12 24.5002C10.5 27.5002 6.99995 27.6669 5 28.0002C-0.149121 28.8585 -4.16433e-05 29.0004 -4.16433e-05 29.0004H158.249C157.358 28.9071 155 29.0004 151 25.5004C148 22.5004 148.5 21.5 148.5 18C148.5 9.5 149 8.5 147.5 6C143.641 -0.431197 133.565 1.00041 125.833 1.00041Z" fill="white"/>
</svg>
