<svg width="169" height="32" viewBox="0 0 169 32" fill="none" xmlns="http://www.w3.org/2000/svg">
<path d="M21.1054 0.794312H147.082C154.814 0.794312 158.899 2.14109 160 9.79431C160.467 13.0431 160 17.2943 160 22.7943C160 26.2943 160.466 28.4419 163.249 29.7943C166.338 31.2955 167.607 31.701 168.498 31.7943H0.383624C0.292544 31.7994 0.248962 31.7943 0.248962 31.7943H0.383624C0.869874 31.767 2.70993 31.4478 6.5 28.5C9 25.2057 7.98664 20.1315 8 17C8.0081 15.1011 8 10 8 10C8.7277 2.10622 13.1781 0.794312 21.1054 0.794312Z" fill="white"/>
</svg>
